# xmcd CD database file
#
# Track frame offsets:
#	150
#	14565
#	36134
#	53215
#	71144
#	83412
#	95222
#	106226
#	118965
#	132228
#	154229
#	173802
#	195858
#	214253
#	234976
#	266505
#
# Disc length: 3744 seconds
#
# Revision: 0
# Processed by: cddbd v1.5.2PL0 Copyright (c) Steve Scherf et al.
# Submitted via: CDex 1.70beta2
#
DISCID=dd0e9e10
DTITLE=Various Artist - Chrismas 101 Disk 3
DYEAR=1900
DGENRE=Jazz
TTITLE0=Jingle Bells
TTITLE1=We Free Kings
TTITLE2=Looks Like December
TTITLE3=I've Got My Love to Keep Me Warm
TTITLE4=OLE Santa
TTITLE5=A Child is Born
TTITLE6=O Little Town of Bethlehem
TTITLE7='Zat You Santa Clause?
TTITLE8=I am Blessed
TTITLE9=Please Come Home For Christmas
TTITLE10=Warm Fire
TTITLE11=Christmas Cheer
TTITLE12=Christmas Waltz
TTITLE13=The Secret of Christmas
TTITLE14=Wintersong
TTITLE15=Christmas Medley
EXTD=
EXTT0=
EXTT1=
EXTT2=
EXTT3=
EXTT4=
EXTT5=
EXTT6=
EXTT7=
EXTT8=
EXTT9=
EXTT10=
EXTT11=
EXTT12=
EXTT13=
EXTT14=
EXTT15=
PLAYORDER=
